<svg width="176" height="48" viewBox="0 0 176 48" fill="none" xmlns="http://www.w3.org/2000/svg">
<rect width="48" height="48" rx="24" fill="#01370C"/>
<path d="M26.9848 15C27.2937 15.0234 27.6026 15.0469 27.911 15.0712C28.1027 15.0867 28.2934 15.1064 28.4893 15.1247V17.9879C28.4106 17.9879 28.337 17.9879 28.2629 17.9879C27.6537 17.9977 27.0444 17.9804 26.4379 18.0254C25.7855 18.0723 25.4011 18.4116 25.3599 19.0645C25.3041 19.9494 25.3458 20.8403 25.3458 21.7482H28.2226C28.0886 22.8262 27.9574 23.8784 27.8243 24.946H25.3308C25.3257 25.0103 25.3177 25.0604 25.3177 25.1106C25.3177 27.6874 25.3177 30.2652 25.3177 32.8439C25.3177 32.896 25.3275 32.948 25.3322 33H22.0983C22.1016 32.9475 22.1077 32.895 22.1077 32.843C22.1077 30.2724 22.1077 27.7016 22.1077 25.1307V24.9582H19.5107V21.7571H22.1086C22.1086 21.6732 22.1086 21.6057 22.1086 21.5382C22.1166 20.5957 22.0913 19.6513 22.1419 18.7111C22.2014 17.605 22.5815 16.6193 23.4542 15.8774C24.0368 15.375 24.7295 15.1317 25.4817 15.0352C25.5385 15.0281 25.5933 15.0117 25.6505 15H26.9848Z" fill="white"/>
<rect x="64" width="48" height="48" rx="24" fill="#01370C"/>
<path d="M76.9566 30.9725C79.4153 31.1926 81.609 30.5969 83.6113 29.0911C82.2562 29.0125 81.1623 28.4986 80.295 27.5273C79.8717 27.053 79.4923 26.3738 79.4088 25.938C80.0593 26.016 80.6994 26.0328 81.3656 25.848C78.8922 25.229 77.7339 23.07 77.8016 21.3707C78.1225 21.4921 78.4342 21.6357 78.76 21.7257C79.0866 21.8075 79.4201 21.8583 79.7563 21.8775C78.6797 21.0541 78.0217 19.9939 77.8591 18.6631C77.7301 17.6127 77.9621 16.6261 78.4472 15.8445C80.9011 18.7304 84.0032 20.3256 87.81 20.582C87.7005 20.0045 87.6846 19.4132 87.7628 18.8306C87.9894 17.1503 89.3646 15.5892 91.0081 15.1707C92.6931 14.7414 94.1722 15.1218 95.4453 16.3117C95.4839 16.3425 95.5284 16.365 95.576 16.3779C95.6237 16.3908 95.6735 16.3937 95.7223 16.3865C96.5992 16.2074 97.4428 15.8927 98.2228 15.4537C98.277 15.4222 98.336 15.3962 98.4342 15.3453C98.0883 16.4082 97.4427 17.1855 96.5679 17.7969C97.4167 17.7146 98.2168 17.4761 98.9957 17.1535L99.0434 17.2077C98.6775 17.6354 98.3301 18.081 97.9403 18.4859C97.6314 18.8062 97.266 19.0713 96.9376 19.3738C96.8583 19.4473 96.8094 19.5479 96.8004 19.6556C96.7955 24.3368 94.9526 28.097 91.1398 30.8375C89.5321 31.9937 87.6962 32.6193 85.7329 32.8767C83.8979 33.1278 82.0307 32.9944 80.2501 32.4848C79.1202 32.1589 78.0416 31.6759 77.046 31.05C77.0147 31.0259 76.9849 31.0001 76.9566 30.9725V30.9725Z" fill="white"/>
<rect x="128" width="48" height="48" rx="24" fill="#01370C"/>
<path d="M148.408 12H155.583C156.144 12.0311 156.704 12.0603 157.264 12.0942C158.243 12.1516 159.204 12.3201 160.104 12.725C162.311 13.7179 163.474 15.4862 163.836 17.8313C163.9 18.2456 163.93 18.6651 163.977 19.0817V28.7429C163.963 28.8503 163.947 28.9576 163.934 29.065C163.872 29.5913 163.845 30.1257 163.74 30.6436C163.263 32.9373 161.967 34.5667 159.763 35.425C158.706 35.8364 157.593 35.9485 156.473 35.9598C153.933 35.9857 151.393 36.0097 148.853 35.996C147.606 35.9895 146.352 35.9843 145.125 35.6867C143.137 35.2042 141.662 34.0771 140.784 32.2165C140.244 31.0715 140.078 29.8394 140.066 28.5914C140.038 25.9949 140.009 23.3999 140.03 20.8039C140.033 19.7105 140.112 18.6187 140.266 17.5361C140.512 15.8605 141.322 14.4637 142.696 13.4326C143.873 12.5489 145.238 12.1977 146.679 12.0956C147.255 12.0551 147.832 12.0315 148.408 12ZM152.028 33.892V33.8553C152.662 33.8553 153.295 33.8742 153.928 33.8516C155.285 33.8045 156.653 33.8181 157.997 33.6501C159.843 33.4189 161.096 32.3596 161.549 30.5216C161.733 29.7792 161.796 28.9929 161.809 28.2246C161.851 25.8104 161.863 23.3955 161.845 20.98C161.845 20.0044 161.786 19.0296 161.669 18.061C161.424 16.1303 160.22 14.8248 158.318 14.4448C157.497 14.281 156.644 14.2316 155.803 14.2179C153.702 14.1826 151.599 14.1892 149.495 14.1963C148.292 14.2 147.087 14.1845 145.895 14.394C144.076 14.7146 142.828 15.8695 142.456 17.6835C142.295 18.4655 142.242 19.2785 142.226 20.0793C142.185 22.0011 142.169 23.9248 142.191 25.8471C142.206 27.2049 142.242 28.5673 142.371 29.9181C142.499 31.2363 143.121 32.3267 144.278 33.0451C145.061 33.5305 145.94 33.7249 146.846 33.7574C148.574 33.8191 150.301 33.8478 152.028 33.892Z" fill="white"/>
<path d="M145.847 24.0053C145.852 20.5967 148.629 17.8285 152.028 17.8426C155.445 17.8567 158.204 20.6288 158.183 24.0256C158.162 27.4355 155.411 30.1807 152.016 30.1775C148.611 30.1727 145.842 27.4026 145.847 24.0053ZM148.02 24.0053C148.019 24.796 148.253 25.5692 148.692 26.227C149.13 26.8848 149.754 27.3977 150.485 27.7008C151.215 28.0039 152.019 28.0836 152.794 27.9298C153.57 27.7759 154.282 27.3955 154.842 26.8366C155.401 26.2777 155.782 25.5654 155.936 24.7899C156.091 24.0145 156.012 23.2106 155.709 22.4801C155.406 21.7496 154.894 21.1253 154.236 20.6861C153.579 20.2469 152.806 20.0127 152.015 20.013C151.49 20.0116 150.971 20.114 150.486 20.3141C150 20.5143 149.56 20.8083 149.188 21.1792C148.817 21.5502 148.523 21.9908 148.322 22.4757C148.122 22.9607 148.019 23.4805 148.02 24.0053Z" fill="white"/>
<path d="M158.458 16.1623C158.835 16.1758 159.191 16.337 159.45 16.611C159.709 16.8851 159.85 17.25 159.843 17.627C159.835 18.004 159.679 18.3629 159.409 18.6261C159.139 18.8894 158.777 19.036 158.4 19.0342C158.209 19.0333 158.021 18.9945 157.845 18.92C157.67 18.8456 157.511 18.737 157.378 18.6007C157.245 18.4643 157.141 18.3028 157.071 18.1256C157.001 17.9484 156.967 17.7591 156.97 17.5686C156.974 17.3781 157.016 17.1903 157.093 17.0161C157.17 16.8419 157.281 16.6848 157.42 16.5539C157.558 16.4231 157.721 16.321 157.9 16.2538C158.078 16.1866 158.268 16.1555 158.458 16.1623Z" fill="white"/>
</svg>
